# xmcd
#
# Track frame offsets:
# 150
# 6100
# 9750
# 13607
# 16810
# 20662
# 25321
# 29747
# 34540
# 38684
# 40290
# 43247
# 46349
# 51421
# 56035
# 58436
# 62521
# 67037
# 69375
# 72702
# 76234
# 79331
# 82629
# 85325
# 89911
# 93259
# 97879
# 100076
#
# Disc length: 1386 seconds
#
#
# Revision: 0
# Processed by: cddbd v1.4PL0 Copyright (c) Steve Scherf et al.
# Submitted via: FreeRIP 2.30 
#
DISCID=6e05681c
DTITLE=Tommy Flint - Bluegrass Guitar
DYEAR=1978
DGENRE=Bluegrass
TTITLE0=Drop Thumb Rhythm/Slurs/Hammer On/Pull Off/Slide
TTITLE1=Old Time Religion
TTITLE2=Pentatonic Scales/BG Runs
TTITLE3=This Train
TTITLE4=John Henry
TTITLE5=On Top of Old Smoky
TTITLE6=Skip to My Lou
TTITLE7=Clinch Mountain Crossing
TTITLE8=The Midnight Run
TTITLE9=A BG Ending/The Hook
TTITLE10=Hookin' the Boogie
TTITLE11=Drop Thumb/Another/Sourwood Mtn
TTITLE12=Big Pney Gap
TTITLE13=Skip to My Lou
TTITLE14=2 and 3 Finger Pull
TTITLE15=The Hills of Brown
TTITLE16=Wolf Creek
TTITLE17=Single String Picking
TTITLE18=Kentucky Hoedown
TTITLE19=The Galway Piper
TTITLE20=Liberty
TTITLE21=Billy in the Low Ground
TTITLE22=Leather Britches
TTITLE23=Mississippi Sawyer
TTITLE24=Bill Cheatham
TTITLE25=Travis, Kelly, and Patrick
TTITLE26=3 Banjo Rolls
TTITLE27=Rough River Hoedown
EXTD=Mel Bay's Bluegrass Guitar\nISBN 0-7866-3511-8
EXTT0=
EXTT1=
EXTT2=
EXTT3=
EXTT4=
EXTT5=
EXTT6=
EXTT7=
EXTT8=
EXTT9=
EXTT10=
EXTT11=
EXTT12=
EXTT13=
EXTT14=
EXTT15=
EXTT16=
EXTT17=
EXTT18=
EXTT19=
EXTT20=
EXTT21=
EXTT22=
EXTT23=
EXTT24=
EXTT25=
EXTT26=
EXTT27=
PLAYORDER=
